<?xml version="1.0" encoding="UTF-8"?>
<svg id="svg14" xmlns="http://www.w3.org/2000/svg" xmlns:xlink="http://www.w3.org/1999/xlink" width="144" height="144" viewBox="0 0 144 144">
  <defs>
    <style>
      .cls-1 {
        stroke: #fff;
        stroke-miterlimit: 4.05164609;
        stroke-width: 4.06278828px;
        fill-opacity:0.44949496;
      }

      .cls-2 {
        fill: #49006f;
        stroke-width: 7.55905533px;
      }

      .cls-2, .cls-3, .cls-4 {
        stroke: #191919;
        stroke-miterlimit: 15.11811066;
      }

      .cls-5 {
        fill: #fff;
      }

      .cls-6 {
        fill: none;
      }

      .cls-3 {
        fill: #4d2600;
      }

      .cls-3, .cls-4 {
        stroke-width: 7.40031496px;
      }

      .cls-7 {
        clip-path: url(#clippath);
      }

      .cls-4 {
        fill: rgba(102, 51, 0, .99000001);
      }
    </style>
    <clipPath id="clippath">
      <polygon class="cls-6" points="54.8481292 101.70795481 37.69544975 71.99982493 54.84759514 42.29151194 89.15190117 42.29200022 106.30456535 72.00013011 89.15241997 101.70856516 54.8481292 101.70795481"/>
    </clipPath>
  </defs>
  <rect id="rect2" class="cls-4" x="3.7001574" y="3.7001574" width="136.59968283" height="136.59967652"/>
  <path id="path4" class="cls-2" d="M26.30551261,26.30552072h91.38897647v91.38897647H26.30551261V26.30552072Z"/>
  <path id="path10" class="cls-3" d="M83.85638125,140.29984834h19.35873972l37.08473369-37.07717158v-19.36252438l-56.4434734,56.43969595Z"/>
  <g id="g875">
    <g class="cls-7">
      <path id="path7" class="cls-1" d="M54.8481293,101.70793706l-17.15266916-29.70809461,17.15213237-29.70836334,34.30430694.00058792,17.15265976,29.70810703-17.1521401,29.70837672-34.30428981-.00061373Z"/>
    </g>
  </g>
  <path class="cls-5" d="M71.96925356,82.00771556c-1.74051846,0-2.61078078-.87025923-2.61077923-2.61078078-.00000154-2.03051534.35231063-3.70885743,1.05693652-5.03501701.70435576-1.36743555,1.49166171-2.40333121,2.36192094-3.10768542.91180379-.70462435,2.03065118-1.42988514,3.35654217-2.17578391,1.16052779-.66308133,1.98937521-1.20180067,2.48655153-1.616158.53871779-.41435888.95307667-.95307821,1.24307355-1.616158.33181003-.66308133.49771658-1.5541113.49771658-2.67309453,0-1.65743243-.18654145-2.92127826-.55962745-3.79153749-.373086-.91180379-1.01539505-1.55411284-1.92692716-1.92692716-.87025923-.37308368-2.1341066-.55962668-3.79153904-.55962591h-4.16542616c-1.65770256-.00000077-2.94232067.18654223-3.85385279.55962591-.87026077.37281432-1.49193339,1.01512338-1.8650163,1.92692716-.37281587.87026077-.55922148,2.13410506-.55922148,3.79153749,0,1.74052-.87025923,2.61077923-2.61077923,2.61077923s-2.61078001-.87025923-2.61077923-2.61077923c-.00000077-7.66643346,3.83321634-11.49964942,11.49965058-11.4996498h4.16462195c3.89539889.00000039,6.77553856.95321251,8.64041593,2.85963675,1.90615643,1.86488123,2.8592331,4.74488429,2.8592331,8.64001151,0,2.03078547-.35217942,3.7298983-1.0565321,5.09733231-.70462435,1.32616267-1.51270412,2.34142034-2.42423624,3.04577456-.87025923.70462435-1.96846864,1.42988668-3.2946313,2.17578391-1.16025611.66307979-2.00974461,1.20180067-2.5484624,1.61615955-.497448.41435888-.91193962.95307976-1.24347798,1.61615955-.28999379.66307979-.43499378,1.55398009-.43499378,2.67269165,0,1.74051846-.87025923,2.61078386-2.61077923,2.61078078l.00039825-.00000309ZM71.22349062,92.32620191c-.78744179,0-1.4091144-.20717944-1.8650163-.62153832-.41435734-.45590035-.62153678-1.07744176-.62153678-1.86461187v-1.55384117c0-.78771346.20717944-1.38861071.62153678-1.802701.45590189-.41462747,1.07757451-.62193966,1.8650163-.62194274h1.4919303c1.57461499.00000309,2.36192094.80807669,2.36192094,2.42423624v1.55384117c0,.78771038-.20717944,1.40951728-.62153832,1.86542072-.373086.41435579-.9532156.62153832-1.74038571.62153832l-1.49192721-.00040134Z"/>
</svg>